HIERARCHY
ROOT hip
{
  OFFSET 0 0 0
  CHANNELS 6 Xposition Yposition Zposition Zrotation Yrotation Xrotation
  JOINT abdomen
  {
    OFFSET 0 20.6881 -0.73152
    CHANNELS 3 Zrotation Xrotation Yrotation
    JOINT chest
    {
      OFFSET 0 11.7043 -0.48768
      CHANNELS 3 Zrotation Xrotation Yrotation
      JOINT neck
      {
        OFFSET 0 22.1894 -2.19456
        CHANNELS 3 Zrotation Xrotation Yrotation
        JOINT head
        {
          OFFSET -0.24384 7.07133 1.2192
          CHANNELS 3 Zrotation Xrotation Yrotation
          JOINT leftEye
          {
            OFFSET 4.14528 8.04674 8.04672
            CHANNELS 3 Zrotation Xrotation Yrotation
            End Site
            {
              OFFSET 1 0 0
            }
          }
          JOINT rightEye
          {
            OFFSET -3.6576 8.04674 8.04672
            CHANNELS 3 Zrotation Xrotation Yrotation
            End Site
            {
              OFFSET 1 0 0
            }
          }
        }
      }
      JOINT rCollar
      {
        OFFSET -2.68224 19.2634 -4.8768
        CHANNELS 3 Zrotation Xrotation Yrotation
        JOINT rShldr
        {
          OFFSET -8.77824 -1.95073 1.46304
          CHANNELS 3 Zrotation Xrotation Yrotation
          JOINT rForeArm
          {
            OFFSET -28.1742 -1.7115 0.48768
            CHANNELS 3 Zrotation Xrotation Yrotation
            JOINT rHand
            {
              OFFSET -22.5879 0.773209 7.07136
              CHANNELS 3 Zrotation Xrotation Yrotation
              JOINT rThumb1
              {
                OFFSET -1.2192 -0.487915 3.41376
                CHANNELS 3 Zrotation Xrotation Yrotation
                JOINT rThumb2
                {
                  OFFSET -3.37035 -0.52449 3.41376
                  CHANNELS 3 Zrotation Xrotation Yrotation
                  End Site
                  {
                    OFFSET -1.78271 -1.18214 1.43049
                  }
                }
              }
              JOINT rIndex1
              {
                OFFSET -7.75947 0.938293 5.60832
                CHANNELS 3 Zrotation Xrotation Yrotation
                JOINT rIndex2
                {
                  OFFSET -2.54057 -0.884171 1.56538
                  CHANNELS 3 Zrotation Xrotation Yrotation
                  End Site
                  {
                    OFFSET -1.62519 -0.234802 1.16502
                  }
                }
              }
              JOINT rMid1
              {
                OFFSET -8.24714 1.18213 3.41376
                CHANNELS 3 Zrotation Xrotation Yrotation
                JOINT rMid2
                {
                  OFFSET -3.10165 -0.590103 1.0647
                  CHANNELS 3 Zrotation Xrotation Yrotation
                  End Site
                  {
                    OFFSET -2.48547 -0.328903 0.83742
                  }
                }
              }
              JOINT rRing1
              {
                OFFSET -8.82822 0.546677 1.51678
                CHANNELS 3 Zrotation Xrotation Yrotation
                JOINT rRing2
                {
                  OFFSET -2.60934 -0.819778 -0.0198488
                  CHANNELS 3 Zrotation Xrotation Yrotation
                  End Site
                  {
                    OFFSET -2.33842 -0.294052 0.168128
                  }
                }
              }
              JOINT rPinky1
              {
                OFFSET -8.27202 -0.0477905 -0.4584
                CHANNELS 3 Zrotation Xrotation Yrotation
                JOINT rPinky2
                {
                  OFFSET -1.82734 -0.647385 -0.700984
                  CHANNELS 3 Zrotation Xrotation Yrotation
                  End Site
                  {
                    OFFSET -1.69225 -0.51767 -0.607171
                  }
                }
              }
            }
          }
        }
      }
      JOINT lCollar
      {
        OFFSET 2.68224 19.2634 -4.8768
        CHANNELS 3 Zrotation Xrotation Yrotation
        JOINT lShldr
        {
          OFFSET 8.77824 -1.95073 1.46304
          CHANNELS 3 Zrotation Xrotation Yrotation
          JOINT lForeArm
          {
            OFFSET 28.1742 -1.7115 0.48768
            CHANNELS 3 Zrotation Xrotation Yrotation
            JOINT lHand
            {
              OFFSET 22.5879 0.773209 7.07136
              CHANNELS 3 Zrotation Xrotation Yrotation
              JOINT lThumb1
              {
                OFFSET 1.2192 -0.487915 3.41376
                CHANNELS 3 Zrotation Xrotation Yrotation
                JOINT lThumb2
                {
                  OFFSET 3.37035 -0.52449 3.41376
                  CHANNELS 3 Zrotation Xrotation Yrotation
                  End Site
                  {
                    OFFSET 1.78271 -1.18214 1.43049
                  }
                }
              }
              JOINT lIndex1
              {
                OFFSET 7.75947 0.938293 5.60832
                CHANNELS 3 Zrotation Xrotation Yrotation
                JOINT lIndex2
                {
                  OFFSET 2.54057 -0.884171 1.56538
                  CHANNELS 3 Zrotation Xrotation Yrotation
                  End Site
                  {
                    OFFSET 1.62519 -0.234802 1.16502
                  }
                }
              }
              JOINT lMid1
              {
                OFFSET 8.24714 1.18213 3.41376
                CHANNELS 3 Zrotation Xrotation Yrotation
                JOINT lMid2
                {
                  OFFSET 3.10165 -0.590103 1.0647
                  CHANNELS 3 Zrotation Xrotation Yrotation
                  End Site
                  {
                    OFFSET 2.48547 -0.328903 0.83742
                  }
                }
              }
              JOINT lRing1
              {
                OFFSET 8.82822 0.546677 1.51678
                CHANNELS 3 Zrotation Xrotation Yrotation
                JOINT lRing2
                {
                  OFFSET 2.60934 -0.819778 -0.0198488
                  CHANNELS 3 Zrotation Xrotation Yrotation
                  End Site
                  {
                    OFFSET 2.33842 -0.294052 0.168128
                  }
                }
              }
              JOINT lPinky1
              {
                OFFSET 8.27202 -0.0477905 -0.4584
                CHANNELS 3 Zrotation Xrotation Yrotation
                JOINT lPinky2
                {
                  OFFSET 1.82734 -0.647385 -0.700984
                  CHANNELS 3 Zrotation Xrotation Yrotation
                  End Site
                  {
                    OFFSET 1.69225 -0.51767 -0.607171
                  }
                }
              }
            }
          }
        }
      }
    }
  }
  JOINT rButtock
  {
    OFFSET -8.77824 4.35084 1.2192
    CHANNELS 3 Zrotation Xrotation Yrotation
    JOINT rThigh
    {
      OFFSET 0 -1.70687 -2.19456
      CHANNELS 3 Zrotation Xrotation Yrotation
      JOINT rShin
      {
        OFFSET 0 -36.8199 0.73152
        CHANNELS 3 Zrotation Xrotation Yrotation
        JOINT rFoot
        {
          OFFSET 0.73152 -45.1104 -5.12064
          CHANNELS 3 Zrotation Xrotation Yrotation
          End Site
          {
            OFFSET -1.1221 -3.69964 12.103
          }
        }
      }
    }
  }
  JOINT lButtock
  {
    OFFSET 8.77824 4.35084 1.2192
    CHANNELS 3 Zrotation Xrotation Yrotation
    JOINT lThigh
    {
      OFFSET 0 -1.70687 -2.19456
      CHANNELS 3 Zrotation Xrotation Yrotation
      JOINT lShin
      {
        OFFSET 0 -36.8199 0.73152
        CHANNELS 3 Zrotation Xrotation Yrotation
        JOINT lFoot
        {
          OFFSET -0.73152 -45.1104 -5.12064
          CHANNELS 3 Zrotation Xrotation Yrotation
          End Site
          {
            OFFSET 1.1221 -3.69964 12.103
          }
        }
      }
    }
  }
}
MOTION
Frames:	4
Frame Time:	0.03333
0.021428621288377442 31.92360408624967 0.001375098756952393 2.7885994911193848 18.695600509643555 4.888400077819824 -10.805601119995117 9.201079368591309 1.6558899879455566 5.061079502105713 -8.714138984680176 0.6752790212631226 -7.633949279785156 16.143299102783203 -8.09926986694336 11.603999137878418 -25.053098678588867 -13.376996994018555 -0.0 0.0 -0.0 -0.0 0.0 -0.0 1.2722218027325094e-14 -2.5444436054650188e-14 6.742775825532843e-13 45.71159362792969 37.3297004699707 8.587980270385742 -28.197999954223633 -31.962400436401367 70.39219665527344 -0.0029810303822159767 1.559920072555542 0.2192869931459427 4.155776001102396e-10 1.0648000703383786e-08 -4.085701998945979e-09 7.098934218241482e-10 1.8375901689182683e-08 -7.061740525671212e-09 4.155776001102396e-10 1.0648000703383786e-08 -4.085708660284126e-09 7.7309088706970215 5.474880218505859 0.41731396317481995 4.155776001102396e-10 1.0648000703383786e-08 -4.085701998945979e-09 2.9055399894714355 0.9651829600334167 0.10290198773145676 4.155839838926312e-10 1.0648000703383786e-08 -4.085689564448103e-09 10.27859878540039 0.73180091381073 0.025912299752235413 4.155712440834236e-10 1.0648000703383786e-08 -4.085689564448103e-09 2.2216696739196777 -0.7334870100021362 -0.2089199721813202 1.2722218027325094e-14 -2.5444436054650188e-14 6.742775825532843e-13 -58.965396881103516 57.16569519042969 -15.633299827575684 28.001598358154297 -40.405399322509766 -84.65169525146484 1.9404898881912231 -36.27220153808594 5.919589519500732 -5.281692305736385e-10 4.243050355512423e-09 -1.4141318116500656e-09 -8.73780992005635e-10 6.523959594773032e-09 -2.451291614136153e-09 -5.281756143560301e-10 4.2430823299355325e-09 -1.4141318116500656e-09 -7.7309088706970215 5.474880218505859 -0.41731396317481995 -5.281692305736385e-10 4.243050355512423e-09 -1.4141318116500656e-09 -2.9055399894714355 0.9651829600334167 -0.10290198773145676 -5.281756143560301e-10 4.243050355512423e-09 -1.414138139921306e-09 -10.27859878540039 0.73180091381073 -0.025912299752235413 -5.281629023023982e-10 4.243057016850571e-09 -1.414138139921306e-09 -2.2216696739196777 -0.7334870100021362 0.2089199721813202 -0.0 0.0 -0.0 -45.904296875 -59.07099533081055 -43.9661979675293 -2.7950198650360107 73.46009826660156 2.9586498737335205 4.285300254821777 -6.072039604187012 20.284997940063477 -0.0 0.0 -0.0 14.372701644897461 5.296860218048096 6.012349605560303 -0.0004840065084863454 42.831298828125 -2.8959999084472656 15.277798652648926 -22.909099578857422 36.91679382324219
0.03540879121977705 31.87438574309056 -0.000744845177385949 2.921599864959717 18.832399368286133 4.853700160980225 -11.017498970031738 9.388469696044922 1.825589895248413 5.106280326843262 -8.704450607299805 0.7176060080528259 -7.571640968322754 16.218399047851562 -8.173359870910645 11.674699783325195 -25.477298736572266 -13.4847993850708 -0.0 0.0 -0.0 -0.0 0.0 -0.0 -6.361109013662547e-15 6.361109013662547e-14 6.29749778800065e-13 45.85739517211914 37.17389678955078 8.233609199523926 -28.206697463989258 -32.03409957885742 70.50849914550781 -0.003123959992080927 1.5952398777008057 0.22425401210784912 3.107020196679855e-10 9.749958174154472e-09 -3.880747279083607e-09 5.290088922471625e-10 1.682669825697758e-08 -6.70831123983362e-09 3.107020196679855e-10 9.749958174154472e-09 -3.880760157670693e-09 7.7309088706970215 5.474880218505859 0.41731396317481995 3.107020196679855e-10 9.749958174154472e-09 -3.880747279083607e-09 2.9055399894714355 0.9651829600334167 0.10290198773145676 3.107020196679855e-10 9.749958174154472e-09 -3.880741061834669e-09 10.27859878540039 0.73180091381073 0.025912299752235413 3.106892798587779e-10 9.749958174154472e-09 -3.880728183247584e-09 2.2216696739196777 -0.7334870100021362 -0.2089199721813202 -6.361109013662547e-15 6.361109013662547e-14 6.29749778800065e-13 -58.44499588012695 56.96489715576172 -16.094499588012695 28.010700225830078 -40.356998443603516 -84.56420135498047 1.9446802139282227 -36.304203033447266 5.92657995223999 -9.487021168652632e-10 9.526416100413826e-09 -2.0751400597873726e-09 -1.581549780027558e-09 1.523850023943396e-08 -3.6029321748287657e-09 -9.48708556158806e-10 9.526440969409578e-09 -2.0751400597873726e-09 -7.7309088706970215 5.474880218505859 -0.41731396317481995 -9.487021168652632e-10 9.526409883164888e-09 -2.075127403244892e-09 -2.9055399894714355 0.9651829600334167 -0.10290198773145676 -9.48708556158806e-10 9.526428534911702e-09 -2.0751400597873726e-09 -10.27859878540039 0.73180091381073 -0.025912299752235413 -9.486894603227825e-10 9.526428534911702e-09 -2.0751527163298533e-09 -2.2216696739196777 -0.7334870100021362 0.2089199721813202 -0.0 0.0 -0.0 -46.226200103759766 -59.17629623413086 -44.10989761352539 -2.8485898971557617 73.69129943847656 3.011049747467041 4.286439895629883 -6.149550437927246 20.133298873901367 -0.0 0.0 -0.0 14.3514986038208 5.2133307456970215 6.076179504394531 0.0008989555644802749 42.99679946899414 -2.9094700813293457 15.25110149383545 -22.870601654052734 36.919795989990234
0.0603324549910044 31.852040779220864 -0.007161972570869896 3.0260000228881836 18.88079833984375 4.86169958114624 -11.124698638916016 9.646079063415527 2.0787596702575684 5.125720500946045 -8.685869216918945 0.7819890379905701 -7.479569911956787 16.27869987487793 -8.271089553833008 11.784799575805664 -25.944698333740234 -13.625999450683594 -0.0 0.0 -0.0 -0.0 0.0 -0.0 -1.0177774421860075e-13 2.2263881547818914e-13 -2.162777064645266e-13 46.08469772338867 36.92149353027344 7.7604594230651855 -28.21839714050293 -32.12990188598633 70.6626968383789 -0.003057010006159544 1.5782098770141602 0.22185999155044556 -2.570842150273478e-10 -1.8603572016218095e-09 4.76389816483902e-10 -4.436237488469885e-10 -3.206259702182024e-09 8.206593737902779e-10 -2.5707150297371584e-10 -1.860338105785786e-09 4.7637710443027e-10 7.7309088706970215 5.474880218505859 0.41731396317481995 -2.570842150273478e-10 -1.8603572016218095e-09 4.763834327015104e-10 2.9055399894714355 0.9651829600334167 0.10290198773145676 -2.5706514694689986e-10 -1.860338105785786e-09 4.763834327015104e-10 10.27859878540039 0.73180091381073 0.025912299752235413 -2.570905710541638e-10 -1.8603572016218095e-09 4.76402528537534e-10 2.2216696739196777 -0.7334870100021362 -0.2089199721813202 -1.0177774421860075e-13 2.2263881547818914e-13 -2.162777064645266e-13 -57.482696533203125 56.720001220703125 -17.039297103881836 28.034595489501953 -40.22480010986328 -84.32759094238281 1.9418898820877075 -36.281402587890625 5.921719551086426 -6.901612614740316e-10 8.691609210131901e-09 -1.5580009504745362e-09 -1.1462590876476497e-09 1.4042199403263567e-08 -2.705869528440985e-09 -6.901675897452719e-10 8.691590558385087e-09 -1.5579882939320555e-09 -7.7309088706970215 5.474880218505859 -0.41731396317481995 -6.901612614740316e-10 8.691609210131901e-09 -1.5579882939320555e-09 -2.9055399894714355 0.9651829600334167 -0.10290198773145676 -6.901675897452719e-10 8.691622532808196e-09 -1.5579882939320555e-09 -10.27859878540039 0.73180091381073 -0.025912299752235413 -6.9015487769164e-10 8.691628750057134e-09 -1.5580009504745362e-09 -2.2216696739196777 -0.7334870100021362 0.2089199721813202 -0.0 0.0 -0.0 -46.321102142333984 -59.30589294433594 -44.10960006713867 -2.901789665222168 73.92069244384766 3.067319869995117 4.257269382476807 -6.130980014801025 19.992399215698242 -0.0 0.0 -0.0 14.466696739196777 5.12114953994751 6.182849407196045 0.003186618909239769 43.1885986328125 -2.9221699237823486 15.212902069091797 -22.810699462890625 36.915401458740234
0.08903763898898542 31.82385258851622 -0.030939720363902194 3.138199806213379 19.155099868774414 4.844799995422363 -11.152798652648926 10.02640151977539 2.1856300830841064 5.071359634399414 -8.719769477844238 0.8002899885177612 -7.386539459228516 16.413999557495117 -8.382558822631836 11.94260025024414 -26.459197998046875 -13.785298347473145 -0.0 0.0 -0.0 -0.0 0.0 -0.0 -9.54166352049382e-14 2.353610470580414e-13 -5.152498436591935e-13 46.40839385986328 36.62459945678711 7.1197896003723145 -28.2278995513916 -32.21099853515625 70.79379272460938 -0.0030967695638537407 1.5869498252868652 0.22308897972106934 -5.698408411802802e-10 -7.301598881070959e-09 2.371618679219978e-09 -9.802723077712017e-10 -1.2596897747130242e-08 4.096229577754684e-09 -5.698345129090399e-10 -7.301579785234935e-09 2.371612239926435e-09 7.7309088706970215 5.474880218505859 0.41731396317481995 -5.698472249626718e-10 -7.301598881070959e-09 2.371618679219978e-09 2.9055399894714355 0.9651829600334167 0.10290198773145676 -5.698281291266483e-10 -7.301579785234935e-09 2.371618679219978e-09 10.27859878540039 0.73180091381073 0.025912299752235413 -5.698472249626718e-10 -7.301586446573083e-09 2.3716377750560014e-09 2.2216696739196777 -0.7334870100021362 -0.2089199721813202 -9.54166352049382e-14 2.353610470580414e-13 -5.152498436591935e-13 -56.11599349975586 56.402793884277344 -18.56459617614746 28.073896408081055 -40.0072021484375 -83.93329620361328 1.9027503728866577 -35.972896575927734 5.855040073394775 -3.149512317612846e-10 4.307698642236346e-09 -7.955902603384857e-10 -5.182204665388213e-10 6.886129444438893e-09 -1.38130207272269e-09 -3.1495758778810057e-10 4.307666667813237e-09 -7.955839320672453e-10 -7.7309088706970215 5.474880218505859 -0.41731396317481995 -3.149512317612846e-10 4.307698642236346e-09 -7.955839320672453e-10 -2.9055399894714355 0.9651829600334167 -0.10290198773145676 -3.1495758778810057e-10 4.307711076734222e-09 -7.955902603384857e-10 -10.27859878540039 0.73180091381073 -0.025912299752235413 -3.149448757344686e-10 4.307711076734222e-09 -7.955966441208773e-10 -2.2216696739196777 -0.7334870100021362 0.2089199721813202 -0.0 0.0 -0.0 -46.912296295166016 -59.174705505371094 -44.91619873046875 -2.9808592796325684 74.2522964477539 3.151939868927002 4.055210113525391 -6.068979740142822 19.261198043823242 -0.0 0.0 -0.0 14.588098526000977 4.944309711456299 6.129150390625 0.007001400459557772 43.47930145263672 -2.93818998336792 15.169601440429688 -22.739198684692383 36.908199310302734
